<svg width="107" height="24" viewBox="0 0 107 24" fill="none" xmlns="http://www.w3.org/2000/svg">
<path d="M9.09375 23.1406L2.9375 3.40625C2.77083 2.94792 2.55729 2.63542 2.29688 2.46875C2.03646 2.29167 1.75521 2.1875 1.45312 2.15625C1.16146 2.125 0.864583 2.09375 0.5625 2.0625C0.34375 2.04167 0.197917 2 0.125 1.9375C0.0416667 1.86458 0 1.71354 0 1.48438C0 1.36979 0.046875 1.20833 0.140625 1C0.234375 0.791667 0.364583 0.6875 0.53125 0.6875H8.98438C9.16146 0.6875 9.29167 0.791667 9.375 1C9.46875 1.20833 9.51562 1.36979 9.51562 1.48438C9.51562 1.82812 9.34375 2.02083 9 2.0625C8.30208 2.09375 7.71354 2.14062 7.23438 2.20312C6.76562 2.25521 6.53125 2.41667 6.53125 2.6875C6.53125 2.73958 6.54688 2.81771 6.57812 2.92188L11 18L16.2344 1.03125H18.1094L23.75 17.9688L28.0156 2.90625C28.0365 2.85417 28.0469 2.79167 28.0469 2.71875C28.0469 2.52083 27.9167 2.38021 27.6562 2.29688C27.4062 2.21354 27.0729 2.16146 26.6562 2.14062C26.2396 2.10938 25.7812 2.08333 25.2812 2.0625C24.9375 2.02083 24.7656 1.82812 24.7656 1.48438C24.7656 1.36979 24.8073 1.20833 24.8906 1C24.9844 0.791667 25.1198 0.6875 25.2969 0.6875H32.3594C32.5365 0.6875 32.6667 0.791667 32.75 1C32.8438 1.20833 32.8906 1.36979 32.8906 1.48438C32.8906 1.71354 32.849 1.86458 32.7656 1.9375C32.6927 2 32.5469 2.04167 32.3281 2.0625C31.9844 2.08333 31.6458 2.11458 31.3125 2.15625C30.9896 2.19792 30.6979 2.3125 30.4375 2.5C30.1875 2.6875 29.9844 3.01562 29.8281 3.48438L23.7812 23.1406H21.8594L16.1562 6.6875L11.0156 23.1406H9.09375Z" fill="black"/>
<path d="M32.3063 22.8594C32.1292 22.8594 31.9937 22.7812 31.9 22.625C31.8167 22.4688 31.775 22.3333 31.775 22.2188C31.775 21.875 31.9469 21.6823 32.2906 21.6406C32.676 21.5885 33.0719 21.5 33.4781 21.375C33.8844 21.2396 34.0875 21.0052 34.0875 20.6719L34.1031 10.7031C34.1031 10.0573 33.9677 9.61458 33.6969 9.375C33.426 9.13542 33.1083 8.99479 32.7438 8.95312C32.3792 8.90104 32.0562 8.83854 31.775 8.76562C31.6708 8.71354 31.5823 8.64583 31.5094 8.5625C31.4365 8.47917 31.4 8.33854 31.4 8.14062C31.4 8.01562 31.4312 7.875 31.4937 7.71875C31.5562 7.55208 31.65 7.46354 31.775 7.45312C32.9 7.38021 33.9156 7.33333 34.8219 7.3125C35.7385 7.29167 36.4417 7.28125 36.9313 7.28125C37.0146 7.28125 37.1083 7.32292 37.2125 7.40625C37.3167 7.48958 37.3792 7.65625 37.4 7.90625V20.1562C37.4 20.5938 37.5042 20.9115 37.7125 21.1094C37.9313 21.3073 38.1865 21.4375 38.4781 21.5C38.7802 21.5625 39.0563 21.6094 39.3063 21.6406C39.525 21.6615 39.6708 21.7031 39.7438 21.7656C39.8271 21.8281 39.8688 21.9792 39.8688 22.2188C39.8688 22.3333 39.8219 22.4688 39.7281 22.625C39.6448 22.7812 39.5146 22.8594 39.3375 22.8594H32.3063ZM35.6969 4.59375C35.0823 4.59375 34.5771 4.375 34.1813 3.9375C33.7958 3.48958 33.6031 2.94271 33.6031 2.29688C33.6031 1.64062 33.7958 1.09375 34.1813 0.65625C34.5771 0.21875 35.0823 0 35.6969 0C36.3115 0 36.8115 0.21875 37.1969 0.65625C37.5927 1.09375 37.7906 1.64062 37.7906 2.29688C37.7906 2.94271 37.5927 3.48958 37.1969 3.9375C36.8115 4.375 36.3115 4.59375 35.6969 4.59375Z" fill="black"/>
<path d="M45.6594 23.3281C44.7323 23.3281 43.9615 23.1927 43.3469 22.9219C42.7323 22.6615 42.2687 22.2396 41.9562 21.6562C41.6542 21.0729 41.5031 20.3125 41.5031 19.375V8.75H39.7219C39.5969 8.73958 39.5031 8.67708 39.4406 8.5625C39.3781 8.4375 39.3469 8.3125 39.3469 8.1875C39.3469 7.75 39.4875 7.52604 39.7687 7.51562C40.4771 7.42188 41.0552 7.22917 41.5031 6.9375C41.9615 6.64583 42.3365 6.19271 42.6281 5.57812C42.9302 4.95312 43.201 4.10938 43.4406 3.04688C43.4719 2.89062 43.55 2.78646 43.675 2.73438C43.8 2.67188 43.9771 2.64062 44.2062 2.64062C44.4562 2.64062 44.6177 2.67188 44.6906 2.73438C44.7635 2.79688 44.8 2.90104 44.8 3.04688V7.32812H49.1906C49.3156 7.33854 49.4094 7.40104 49.4719 7.51562C49.5344 7.61979 49.5656 7.73438 49.5656 7.85938C49.5656 8.09896 49.5187 8.30729 49.425 8.48438C49.3417 8.66146 49.2427 8.75 49.1281 8.75H44.8V18.1875C44.8 19.0729 44.8781 19.75 45.0344 20.2188C45.201 20.6771 45.4146 20.9948 45.675 21.1719C45.9354 21.3385 46.201 21.4219 46.4719 21.4219C47.1281 21.4219 47.6698 21.3542 48.0969 21.2188C48.5344 21.0729 48.9458 20.875 49.3312 20.625C49.4458 20.5521 49.5552 20.5938 49.6594 20.75C49.7635 20.8958 49.8417 21.0625 49.8937 21.25C49.9562 21.4375 49.951 21.5625 49.8781 21.625C49.649 21.8333 49.3052 22.0729 48.8469 22.3438C48.399 22.6042 47.8885 22.8333 47.3156 23.0312C46.7531 23.2292 46.201 23.3281 45.6594 23.3281Z" fill="black"/>
<path d="M50.2156 22.8594C50.0385 22.8594 49.9031 22.7812 49.8094 22.625C49.726 22.4688 49.6844 22.3333 49.6844 22.2188C49.6844 21.875 49.8563 21.6823 50.2 21.6406C50.5854 21.5885 50.976 21.4948 51.3719 21.3594C51.7781 21.224 51.9813 20.9844 51.9813 20.6406V10.7031C51.9813 10.0573 51.8406 9.61458 51.5594 9.375C51.2781 9.13542 50.9552 8.99479 50.5906 8.95312C50.226 8.90104 49.9135 8.83854 49.6531 8.76562C49.549 8.71354 49.4604 8.64583 49.3875 8.5625C49.3146 8.47917 49.2781 8.33854 49.2781 8.14062C49.2781 8.01562 49.3094 7.86979 49.3719 7.70312C49.4344 7.53646 49.5281 7.44792 49.6531 7.4375C50.7469 7.375 51.7365 7.33333 52.6219 7.3125C53.5073 7.29167 54.1844 7.28125 54.6531 7.28125C54.7365 7.28125 54.8302 7.32292 54.9344 7.40625C55.0385 7.48958 55.101 7.65625 55.1219 7.90625V9.65625C55.3094 9.45833 55.6948 9.15104 56.2781 8.73438C56.8719 8.30729 57.5906 7.91667 58.4344 7.5625C59.2885 7.19792 60.2 7.01562 61.1688 7.01562C61.8875 7.01562 62.549 7.11979 63.1531 7.32812C63.7573 7.52604 64.2417 7.91667 64.6062 8.5C64.9708 9.07292 65.1531 9.91667 65.1531 11.0312V20.125C65.1531 20.625 65.2729 20.974 65.5125 21.1719C65.7625 21.3698 66.049 21.4896 66.3719 21.5312C66.7052 21.5625 67.0021 21.599 67.2625 21.6406C67.4396 21.6615 67.5698 21.7083 67.6531 21.7812C67.7365 21.8438 67.7781 21.9896 67.7781 22.2188C67.7781 22.3333 67.7312 22.4688 67.6375 22.625C67.5542 22.7812 67.424 22.8594 67.2469 22.8594H60.2625C60.0854 22.8594 59.95 22.7812 59.8563 22.625C59.7729 22.4688 59.7313 22.3333 59.7313 22.2188C59.7313 22.0521 59.7573 21.9167 59.8094 21.8125C59.8719 21.7083 60.0073 21.651 60.2156 21.6406C60.549 21.6198 60.9031 21.5208 61.2781 21.3438C61.6531 21.1667 61.8406 20.9323 61.8406 20.6406V10.6875C61.8406 10.4896 61.8042 10.2552 61.7313 9.98438C61.6583 9.71354 61.4813 9.47396 61.2 9.26562C60.9188 9.05729 60.4708 8.95312 59.8563 8.95312C59.2208 8.95312 58.6063 9.0625 58.0125 9.28125C57.4188 9.48958 56.8823 9.74479 56.4031 10.0469C55.9344 10.349 55.5594 10.6354 55.2781 10.9062V20.125C55.2781 20.7917 55.4656 21.2031 55.8406 21.3594C56.226 21.5052 56.6115 21.599 56.9969 21.6406C57.2156 21.6615 57.3615 21.7031 57.4344 21.7656C57.5177 21.8281 57.5594 21.9792 57.5594 22.2188C57.5594 22.3333 57.5125 22.4688 57.4188 22.625C57.3354 22.7812 57.2052 22.8594 57.0281 22.8594H50.2156Z" fill="black"/>
<path d="M75.1469 23.3125C72.626 23.3125 70.7354 22.5885 69.475 21.1406C68.2146 19.6823 67.5844 17.651 67.5844 15.0469C67.5844 13.3073 67.9229 11.8438 68.6 10.6562C69.2875 9.45833 70.1885 8.55208 71.3031 7.9375C72.4281 7.32292 73.6417 7.01562 74.9437 7.01562C76.3083 7.01562 77.4229 7.23958 78.2875 7.6875C79.1521 8.13542 79.8187 8.76042 80.2875 9.5625C80.7562 10.3646 81.0844 11.3073 81.2719 12.3906C81.3344 12.7865 81.376 13.2031 81.3969 13.6406C81.4281 14.0781 81.4437 14.526 81.4437 14.9844H71.3031C71.3135 16.6198 71.5375 17.9219 71.975 18.8906C72.4229 19.8594 72.9802 20.5521 73.6469 20.9688C74.3135 21.3854 74.9958 21.5938 75.6937 21.5938C76.5167 21.5938 77.2562 21.4271 77.9125 21.0938C78.5687 20.75 79.0792 20.2552 79.4437 19.6094C79.475 19.5469 79.5062 19.4844 79.5375 19.4219C79.5792 19.3594 79.6521 19.3385 79.7562 19.3594L80.5219 19.7188C80.6365 19.7604 80.6937 19.8229 80.6937 19.9062C80.6937 19.9479 80.6833 19.9948 80.6625 20.0469C80.6417 20.0885 80.6208 20.125 80.6 20.1562C80.1208 21.0729 79.4385 21.8281 78.5531 22.4219C77.6677 23.0156 76.5323 23.3125 75.1469 23.3125ZM71.35 13.625L77.6469 13.5469C77.6469 11.7344 77.3917 10.4375 76.8812 9.65625C76.3812 8.875 75.7302 8.48438 74.9281 8.48438C74.2302 8.48438 73.626 8.61458 73.1156 8.875C72.6052 9.13542 72.199 9.63542 71.8969 10.375C71.5948 11.1042 71.4125 12.1875 71.35 13.625Z" fill="black"/>
<path d="M88 23.2969C87.1354 23.2969 86.4531 23.2083 85.9531 23.0312C85.4531 22.8646 85.0573 22.7344 84.7656 22.6406C84.3802 22.5156 84.099 22.4531 83.9219 22.4531C83.7552 22.4531 83.6302 22.4792 83.5469 22.5312C83.4635 22.5729 83.375 22.6198 83.2812 22.6719C83.1979 22.724 83.0677 22.75 82.8906 22.75C82.7135 22.75 82.5573 22.7031 82.4219 22.6094C82.2969 22.5156 82.2344 22.3906 82.2344 22.2344C82.2344 21.9427 82.224 21.5938 82.2031 21.1875C82.1823 20.7812 82.1562 20.3698 82.125 19.9531C82.1042 19.526 82.0833 19.1302 82.0625 18.7656C82.0417 18.401 82.0312 18.1094 82.0312 17.8906C82.0312 17.651 82.0885 17.4792 82.2031 17.375C82.3281 17.2708 82.4635 17.2188 82.6094 17.2188C82.9219 17.2188 83.1094 17.3333 83.1719 17.5625C83.2344 17.7917 83.3177 18.0729 83.4219 18.4062C83.526 18.7396 83.7604 19.2604 84.125 19.9688C84.375 20.4167 84.6979 20.7917 85.0938 21.0938C85.4896 21.3958 85.9219 21.6198 86.3906 21.7656C86.8594 21.901 87.3281 21.9688 87.7969 21.9688C88.6927 21.9688 89.4427 21.7865 90.0469 21.4219C90.651 21.0573 90.9531 20.5208 90.9531 19.8125C90.9531 19.2083 90.7552 18.7135 90.3594 18.3281C89.9635 17.9427 89.4427 17.599 88.7969 17.2969C88.1615 16.9844 87.4688 16.6562 86.7188 16.3125C86.0312 15.9792 85.375 15.6042 84.75 15.1875C84.125 14.7708 83.6146 14.25 83.2188 13.625C82.8333 13 82.6406 12.224 82.6406 11.2969C82.6406 10.3698 82.9167 9.58854 83.4688 8.95312C84.0208 8.31771 84.7135 7.83854 85.5469 7.51562C86.3802 7.18229 87.2188 7.01562 88.0625 7.01562C89.0521 7.01562 89.7917 7.125 90.2812 7.34375C90.7812 7.5625 91.1562 7.67188 91.4062 7.67188C91.6354 7.67188 91.7656 7.61458 91.7969 7.5C91.8385 7.375 91.8906 7.26042 91.9531 7.15625C92.0156 7.04167 92.099 6.95833 92.2031 6.90625C92.3073 6.85417 92.4115 6.82812 92.5156 6.82812C92.6615 6.82812 92.7917 6.875 92.9062 6.96875C93.0312 7.0625 93.0938 7.19792 93.0938 7.375C93.0938 7.46875 93.0833 7.71354 93.0625 8.10938C93.0521 8.50521 93.0469 8.9375 93.0469 9.40625C93.0469 9.86458 93.0625 10.25 93.0938 10.5625C93.125 10.875 93.1406 11.1146 93.1406 11.2812C93.1406 11.5208 93.0885 11.6875 92.9844 11.7812C92.8802 11.8646 92.7604 11.9062 92.625 11.9062C92.3438 11.9062 92.1771 11.8229 92.125 11.6562C91.9479 11.2292 91.7188 10.7604 91.4375 10.25C91.1667 9.73958 90.7708 9.29688 90.25 8.92188C89.7396 8.54688 89.0365 8.35938 88.1406 8.35938C87.6198 8.35938 87.1667 8.4375 86.7812 8.59375C86.3958 8.75 86.099 8.97917 85.8906 9.28125C85.6823 9.57292 85.5781 9.9375 85.5781 10.375C85.5781 11.0833 85.9323 11.6719 86.6406 12.1406C87.3594 12.6094 88.2344 13.0781 89.2656 13.5469C90.1094 13.9219 90.901 14.3281 91.6406 14.7656C92.3906 15.1927 92.9948 15.6979 93.4531 16.2812C93.9219 16.8646 94.1562 17.5885 94.1562 18.4531C94.1562 19.9219 93.6198 21.099 92.5469 21.9844C91.474 22.8594 89.9583 23.2969 88 23.2969Z" fill="black"/>
<path d="M100.713 23.2969C99.8479 23.2969 99.1656 23.2083 98.6656 23.0312C98.1656 22.8646 97.7698 22.7344 97.4781 22.6406C97.0927 22.5156 96.8115 22.4531 96.6344 22.4531C96.4677 22.4531 96.3427 22.4792 96.2594 22.5312C96.176 22.5729 96.0875 22.6198 95.9938 22.6719C95.9104 22.724 95.7802 22.75 95.6031 22.75C95.426 22.75 95.2698 22.7031 95.1344 22.6094C95.0094 22.5156 94.9469 22.3906 94.9469 22.2344C94.9469 21.9427 94.9365 21.5938 94.9156 21.1875C94.8948 20.7812 94.8688 20.3698 94.8375 19.9531C94.8167 19.526 94.7958 19.1302 94.775 18.7656C94.7542 18.401 94.7438 18.1094 94.7438 17.8906C94.7438 17.651 94.801 17.4792 94.9156 17.375C95.0406 17.2708 95.176 17.2188 95.3219 17.2188C95.6344 17.2188 95.8219 17.3333 95.8844 17.5625C95.9469 17.7917 96.0302 18.0729 96.1344 18.4062C96.2385 18.7396 96.4729 19.2604 96.8375 19.9688C97.0875 20.4167 97.4104 20.7917 97.8063 21.0938C98.2021 21.3958 98.6344 21.6198 99.1031 21.7656C99.5719 21.901 100.041 21.9688 100.509 21.9688C101.405 21.9688 102.155 21.7865 102.759 21.4219C103.364 21.0573 103.666 20.5208 103.666 19.8125C103.666 19.2083 103.468 18.7135 103.072 18.3281C102.676 17.9427 102.155 17.599 101.509 17.2969C100.874 16.9844 100.181 16.6562 99.4313 16.3125C98.7438 15.9792 98.0875 15.6042 97.4625 15.1875C96.8375 14.7708 96.3271 14.25 95.9313 13.625C95.5458 13 95.3531 12.224 95.3531 11.2969C95.3531 10.3698 95.6292 9.58854 96.1813 8.95312C96.7333 8.31771 97.426 7.83854 98.2594 7.51562C99.0927 7.18229 99.9313 7.01562 100.775 7.01562C101.765 7.01562 102.504 7.125 102.994 7.34375C103.494 7.5625 103.869 7.67188 104.119 7.67188C104.348 7.67188 104.478 7.61458 104.509 7.5C104.551 7.375 104.603 7.26042 104.666 7.15625C104.728 7.04167 104.811 6.95833 104.916 6.90625C105.02 6.85417 105.124 6.82812 105.228 6.82812C105.374 6.82812 105.504 6.875 105.619 6.96875C105.744 7.0625 105.806 7.19792 105.806 7.375C105.806 7.46875 105.796 7.71354 105.775 8.10938C105.765 8.50521 105.759 8.9375 105.759 9.40625C105.759 9.86458 105.775 10.25 105.806 10.5625C105.838 10.875 105.853 11.1146 105.853 11.2812C105.853 11.5208 105.801 11.6875 105.697 11.7812C105.593 11.8646 105.473 11.9062 105.338 11.9062C105.056 11.9062 104.89 11.8229 104.838 11.6562C104.66 11.2292 104.431 10.7604 104.15 10.25C103.879 9.73958 103.483 9.29688 102.963 8.92188C102.452 8.54688 101.749 8.35938 100.853 8.35938C100.332 8.35938 99.8792 8.4375 99.4938 8.59375C99.1083 8.75 98.8115 8.97917 98.6031 9.28125C98.3948 9.57292 98.2906 9.9375 98.2906 10.375C98.2906 11.0833 98.6448 11.6719 99.3531 12.1406C100.072 12.6094 100.947 13.0781 101.978 13.5469C102.822 13.9219 103.614 14.3281 104.353 14.7656C105.103 15.1927 105.707 15.6979 106.166 16.2812C106.634 16.8646 106.869 17.5885 106.869 18.4531C106.869 19.9219 106.332 21.099 105.259 21.9844C104.186 22.8594 102.671 23.2969 100.713 23.2969Z" fill="black"/>
</svg>
