<svg width="100" height="100" viewBox="0 0 100 100" fill="none" xmlns="http://www.w3.org/2000/svg">
<rect width="100" height="100" rx="10" fill="#121212"/>
<path d="M34.875 74.5625L22.5625 35.0938C22.2292 34.1771 21.8021 33.5521 21.2812 33.2188C20.7604 32.8646 20.1979 32.6562 19.5938 32.5938C19.0104 32.5312 18.4167 32.4688 17.8125 32.4062C17.375 32.3646 17.0833 32.2812 16.9375 32.1562C16.7708 32.0104 16.6875 31.7083 16.6875 31.25C16.6875 31.0208 16.7812 30.6979 16.9688 30.2812C17.1562 29.8646 17.4167 29.6562 17.75 29.6562H34.6562C35.0104 29.6562 35.2708 29.8646 35.4375 30.2812C35.625 30.6979 35.7188 31.0208 35.7188 31.25C35.7188 31.9375 35.375 32.3229 34.6875 32.4062C33.2917 32.4688 32.1146 32.5625 31.1562 32.6875C30.2188 32.7917 29.75 33.1146 29.75 33.6562C29.75 33.7604 29.7812 33.9167 29.8438 34.125L38.6875 64.2812L49.1562 30.3438H52.9062L64.1875 64.2188L72.7188 34.0938C72.7604 33.9896 72.7812 33.8646 72.7812 33.7188C72.7812 33.3229 72.5208 33.0417 72 32.875C71.5 32.7083 70.8333 32.6042 70 32.5625C69.1667 32.5 68.25 32.4479 67.25 32.4062C66.5625 32.3229 66.2188 31.9375 66.2188 31.25C66.2188 31.0208 66.3021 30.6979 66.4688 30.2812C66.6562 29.8646 66.9271 29.6562 67.2812 29.6562H81.4062C81.7604 29.6562 82.0208 29.8646 82.1875 30.2812C82.375 30.6979 82.4688 31.0208 82.4688 31.25C82.4688 31.7083 82.3854 32.0104 82.2188 32.1562C82.0729 32.2812 81.7812 32.3646 81.3438 32.4062C80.6562 32.4479 79.9792 32.5104 79.3125 32.5938C78.6667 32.6771 78.0833 32.9062 77.5625 33.2812C77.0625 33.6562 76.6562 34.3125 76.3438 35.25L64.25 74.5625H60.4062L49 41.6562L38.7188 74.5625H34.875Z" fill="white"/>
</svg>
